<svg width="9" height="9" viewBox="0 0 9 9" fill="none" xmlns="http://www.w3.org/2000/svg">
<path d="M8.81822 7.24945C8.77932 7.20257 8.74111 7.1557 8.70361 7.11046C8.18799 6.48679 7.87604 6.11039 7.87604 4.34484C7.87604 3.43078 7.65736 2.68078 7.22635 2.11828C6.90854 1.70273 6.47893 1.3875 5.91268 1.15453C5.90539 1.15048 5.89888 1.14516 5.89346 1.13883C5.68979 0.456796 5.13244 0 4.50385 0C3.87526 0 3.31815 0.456796 3.11448 1.13812C3.10904 1.14422 3.10262 1.14937 3.09549 1.15336C1.77409 1.69734 1.1319 2.74101 1.1319 4.34414C1.1319 6.11039 0.820416 6.48679 0.304322 7.10976C0.266823 7.15499 0.228619 7.20093 0.189713 7.24874C0.0892134 7.36995 0.0255386 7.5174 0.00622432 7.67366C-0.01309 7.82992 0.0127648 7.98844 0.0807289 8.13046C0.225338 8.43515 0.533541 8.62429 0.885338 8.62429H8.12494C8.4751 8.62429 8.78119 8.43538 8.92627 8.1321C8.99453 7.99004 9.02063 7.8314 9.00148 7.67496C8.98233 7.51852 8.91873 7.37085 8.81822 7.24945Z" fill="white"/>
</svg>
