<svg width="11" height="11" viewBox="0 0 11 11" fill="none" xmlns="http://www.w3.org/2000/svg">
<path d="M5.24954 3.51562C4.8787 3.51562 4.51619 3.62559 4.20785 3.83162C3.89951 4.03765 3.65918 4.33048 3.51727 4.67309C3.37535 5.0157 3.33822 5.3927 3.41057 5.75642C3.48292 6.12013 3.66149 6.45422 3.92372 6.71645C4.18594 6.97867 4.52003 7.15725 4.88375 7.22959C5.24746 7.30194 5.62446 7.26481 5.96707 7.1229C6.30968 6.98098 6.60252 6.74066 6.80855 6.43232C7.01457 6.12397 7.12454 5.76146 7.12454 5.39062C7.12306 4.8938 6.92504 4.41775 6.57373 4.06644C6.22242 3.71513 5.74637 3.51711 5.24954 3.51562ZM9.29766 5.39062C9.29669 5.56582 9.28385 5.74075 9.25923 5.91422L10.4004 6.80765C10.4501 6.84869 10.4836 6.90607 10.4949 6.96953C10.5062 7.03299 10.4945 7.09839 10.462 7.15406L9.38251 9.01781C9.34969 9.07298 9.29847 9.11481 9.23785 9.13595C9.17724 9.15708 9.11111 9.15617 9.0511 9.13336L7.70931 8.59429C7.4299 8.80945 7.12415 8.988 6.79946 9.12562L6.59884 10.5502C6.58761 10.614 6.55457 10.6719 6.50537 10.714C6.45616 10.7562 6.39385 10.7799 6.32907 10.7812H4.17001C4.10641 10.78 4.04511 10.7572 3.99612 10.7167C3.94712 10.6761 3.91333 10.6201 3.90025 10.5579L3.69962 9.13336C3.37404 8.99733 3.06807 8.81849 2.78978 8.60156L1.44798 9.14062C1.388 9.16345 1.32189 9.1644 1.26128 9.14331C1.20067 9.12222 1.14943 9.08044 1.11658 9.02531L0.037045 7.16179C0.00455077 7.10613 -0.00709045 7.04072 0.00420165 6.97726C0.0154937 6.9138 0.0489833 6.85643 0.0986856 6.81539L1.23986 5.92195C1.21552 5.74586 1.20268 5.56838 1.20142 5.39062C1.20239 5.21542 1.21524 5.04049 1.23986 4.86703L0.0986856 3.97359C0.0489833 3.93255 0.0154937 3.87518 0.00420165 3.81172C-0.00709045 3.74826 0.00455077 3.68285 0.037045 3.62719L1.11658 1.76344C1.14939 1.70826 1.20061 1.66643 1.26123 1.6453C1.32185 1.62416 1.38798 1.62508 1.44798 1.64789L2.78978 2.18695C3.06918 1.9718 3.37494 1.79324 3.69962 1.65562L3.90025 0.231094C3.91147 0.167285 3.94451 0.109356 3.99372 0.0672057C4.04292 0.0250555 4.10524 0.00130049 4.17001 0H6.32907C6.39267 0.00123786 6.45397 0.0239979 6.50297 0.0645648C6.55196 0.105132 6.58576 0.161109 6.59884 0.223359L6.79946 1.64789C7.12545 1.78382 7.43183 1.96267 7.71048 2.17969L9.0511 1.64062C9.11108 1.61779 9.17719 1.61684 9.2378 1.63793C9.29842 1.65902 9.34966 1.70081 9.38251 1.75594L10.462 3.61969C10.4945 3.67535 10.5062 3.74076 10.4949 3.80422C10.4836 3.86768 10.4501 3.92505 10.4004 3.96609L9.25923 4.85953C9.28356 5.03554 9.2964 5.21294 9.29766 5.39062Z" fill="white"/>
</svg>
