<svg width="15" height="15" viewBox="0 0 15 15" fill="none" xmlns="http://www.w3.org/2000/svg">
<g clip-path="url(#clip0_1502_429)">
<path d="M7.6629 2.96748C7.61928 2.92575 7.56125 2.90247 7.50089 2.90247C7.44053 2.90247 7.38249 2.92575 7.33888 2.96748L1.94532 8.11992C1.92242 8.14183 1.90419 8.16816 1.89176 8.19731C1.87932 8.22647 1.87292 8.25785 1.87296 8.28955L1.87208 13.1253C1.87208 13.3739 1.97085 13.6124 2.14667 13.7882C2.32248 13.964 2.56094 14.0628 2.80958 14.0628H5.62501C5.74933 14.0628 5.86856 14.0134 5.95646 13.9255C6.04437 13.8376 6.09376 13.7184 6.09376 13.594V9.60966C6.09376 9.5475 6.11845 9.48789 6.16241 9.44393C6.20636 9.39998 6.26597 9.37529 6.32813 9.37529H8.67188C8.73404 9.37529 8.79366 9.39998 8.83761 9.44393C8.88157 9.48789 8.90626 9.5475 8.90626 9.60966V13.594C8.90626 13.7184 8.95564 13.8376 9.04355 13.9255C9.13146 14.0134 9.25069 14.0628 9.37501 14.0628H12.1893C12.4379 14.0628 12.6764 13.964 12.8522 13.7882C13.028 13.6124 13.1268 13.3739 13.1268 13.1253V8.28955C13.1268 8.25785 13.1204 8.22647 13.108 8.19731C13.0955 8.16816 13.0773 8.14183 13.0544 8.11992L7.6629 2.96748Z" fill="white"/>
<path d="M14.3825 7.15369L12.1911 5.0572V1.87585C12.1911 1.75153 12.1417 1.63231 12.0538 1.5444C11.9659 1.45649 11.8466 1.4071 11.7223 1.4071H10.3161C10.1918 1.4071 10.0725 1.45649 9.98462 1.5444C9.89671 1.63231 9.84733 1.75153 9.84733 1.87585V2.81335L8.15045 1.19089C7.99166 1.03035 7.75553 0.938354 7.50036 0.938354C7.24606 0.938354 7.01051 1.03035 6.85172 1.19119L0.62028 7.1531C0.438054 7.32888 0.415202 7.61804 0.581022 7.80847C0.622662 7.85654 0.673648 7.89563 0.730875 7.92337C0.788103 7.9511 0.850376 7.9669 0.913905 7.96981C0.977434 7.97271 1.04089 7.96266 1.10041 7.94026C1.15993 7.91787 1.21427 7.88359 1.26012 7.83952L7.33922 2.03054C7.38284 1.98882 7.44087 1.96553 7.50123 1.96553C7.5616 1.96553 7.61963 1.98882 7.66325 2.03054L13.7429 7.83952C13.8325 7.92541 13.9524 7.97228 14.0765 7.96986C14.2006 7.96745 14.3186 7.91594 14.4047 7.82663C14.5846 7.64031 14.5697 7.33269 14.3825 7.15369Z" fill="white"/>
</g>
<defs>
<clipPath id="clip0_1502_429">
<rect width="15" height="15" fill="white"/>
</clipPath>
</defs>
</svg>
