<svg width="12" height="12" viewBox="0 0 12 12" fill="none" xmlns="http://www.w3.org/2000/svg">
<g clip-path="url(#clip0_63_453)">
<path d="M7.79627 1.51341C7.34018 1.02099 6.70315 0.749817 6.00002 0.749817C5.29315 0.749817 4.65401 1.01935 4.20002 1.50872C3.74112 2.00349 3.51752 2.67591 3.57002 3.402C3.67409 4.8345 4.76416 5.99981 6.00002 5.99981C7.23588 5.99981 8.32408 4.83474 8.42979 3.40247C8.48299 2.68294 8.25799 2.01193 7.79627 1.51341Z" fill="white"/>
<path d="M10.1246 11.2493H1.87465C1.76666 11.2507 1.65972 11.228 1.56161 11.1829C1.46349 11.1377 1.37667 11.0713 1.30746 10.9884C1.15511 10.8063 1.09371 10.5576 1.13918 10.3061C1.33699 9.2088 1.95433 8.287 2.92464 7.63989C3.78667 7.06544 4.87863 6.74927 5.99964 6.74927C7.12066 6.74927 8.21261 7.06567 9.07464 7.63989C10.045 8.28677 10.6623 9.20856 10.8601 10.3059C10.9056 10.5574 10.8442 10.8061 10.6918 10.9882C10.6226 11.0711 10.5358 11.1376 10.4377 11.1828C10.3396 11.2279 10.2326 11.2506 10.1246 11.2493Z" fill="white"/>
</g>
<defs>
<clipPath id="clip0_63_453">
<rect width="12" height="12" fill="white"/>
</clipPath>
</defs>
</svg>
